<svg width="38" height="50" viewBox="0 0 38 50" fill="none" xmlns="http://www.w3.org/2000/svg">
<g clip-path="url(#clip0_617_1722)">
<path d="M36.2188 23.3729V34.4066C36.2188 34.5519 36.1385 34.6878 36.011 34.7628L26.378 40.2797C26.378 40.2797 26.3402 40.2984 26.326 40.3078C26.1559 40.3734 26.0189 40.3078 25.9622 40.2797C25.9103 40.2469 25.7874 40.1625 25.7591 39.9984V28.8523C25.7685 28.7351 25.83 28.6273 25.9244 28.557L27.0866 27.8914L35.6614 22.9839C35.7086 22.9651 35.7559 22.9604 35.7984 22.9604C35.8929 22.9604 35.9732 22.9933 36.011 23.0167C36.0724 23.0495 36.2188 23.1573 36.2188 23.3729Z" fill="#5129F0"/>
<path d="M36.2188 9.87584V20.3233L35.5895 19.9672L26.3835 14.7435L35.5895 9.51978C35.661 9.47762 35.7325 9.46356 35.7945 9.46356C35.8899 9.46356 35.9709 9.49636 36.0091 9.51978C36.071 9.55258 36.2188 9.66033 36.2188 9.87584Z" fill="#5129F0"/>
<path d="M35.126 21.5659C35.126 21.6358 35.1071 21.8129 34.9177 21.9201L26.3185 26.8053L25.7692 27.1176L25.2626 27.4066C25.2626 27.4066 25.2578 27.4067 25.2578 27.4113C25.13 27.4766 24.9737 27.4766 24.8506 27.4066H24.8459L24.3487 27.1223L23.7946 26.8053H23.7899L15.1955 21.9201C15.1955 21.9201 15.1907 21.9201 15.1907 21.9155C15.0061 21.8083 14.9871 21.6358 14.9871 21.5659C14.9871 21.5006 15.0061 21.3328 15.1718 21.2302L23.7236 16.3683C23.7236 16.3683 23.7615 16.3497 23.7757 16.3404L24.3439 16.0141L24.8506 15.7251C24.9784 15.6505 25.1394 15.6505 25.2673 15.7251L25.7645 16.0094H25.7692L34.9177 21.2116C35.1071 21.3188 35.126 21.4959 35.126 21.5659Z" fill="white"/>
<path d="M35.126 7.91332C35.126 7.98324 35.1071 8.16037 34.9177 8.26759L25.2626 13.754C25.2626 13.754 25.2578 13.754 25.2578 13.7587C25.1394 13.8193 24.9974 13.824 24.879 13.768C24.8695 13.7634 24.8601 13.7587 24.8506 13.754H24.8459L23.7236 13.1108L15.1481 8.23496C15.1481 8.23496 15.1386 8.23496 15.1339 8.22563C15.0013 8.11842 14.9871 7.97392 14.9871 7.91332C14.9871 7.8434 15.0061 7.66627 15.1955 7.55905L24.8506 2.0726C24.9784 1.99802 25.1394 1.99802 25.2673 2.0726L34.9177 7.55905C35.1071 7.66627 35.126 7.8434 35.126 7.91332Z" fill="white"/>
<path d="M23.2612 14.7371C23.2612 14.8024 23.2423 14.9702 23.0766 15.0728C23.0671 15.0822 23.0624 15.0868 23.0529 15.0915L14.5247 19.9365L13.8997 20.2909L13.3978 20.58C13.3978 20.58 13.393 20.58 13.393 20.5846C13.3835 20.5893 13.3741 20.594 13.3599 20.5986C13.2415 20.6499 13.0994 20.6453 12.9858 20.58H12.9811L12.4791 20.2955L3.33066 15.0961C3.14126 14.9889 3.12231 14.8117 3.12231 14.7417C3.12231 14.6718 3.14126 14.4946 3.33066 14.3873L12.4791 9.18797L12.9858 8.89885C13.1136 8.82424 13.2746 8.82424 13.4025 8.89885L23.0529 14.3873C23.0529 14.3873 23.086 14.406 23.1002 14.42L23.1144 14.4293C23.247 14.5366 23.2612 14.6811 23.2612 14.7417V14.7371Z" fill="white"/>
<path d="M11.7087 21.5717L2.64856 26.7932L2.02954 27.1491V16.7015C2.02954 16.4861 2.17492 16.3784 2.23588 16.3456C2.2734 16.3222 2.34843 16.2894 2.44691 16.2894C2.50787 16.2894 2.57353 16.3034 2.64856 16.3456L11.7087 21.5717Z" fill="#5129F0"/>
<path d="M23.2612 28.3138C23.2612 28.3847 23.2423 28.5641 23.0529 28.6728L14.5247 33.5847C14.5247 33.5847 14.4869 33.6036 14.4727 33.613L13.8997 33.9436L13.3978 34.2317C13.3978 34.2317 13.393 34.2317 13.393 34.2365C13.2652 34.3026 13.1089 34.3026 12.9858 34.2317H12.9811L12.4791 33.9436L11.9062 33.613C11.9062 33.613 11.873 33.5941 11.8541 33.5847L3.33066 28.6728C3.14126 28.5641 3.12231 28.3847 3.12231 28.3138C3.12231 28.243 3.14126 28.0635 3.33066 27.9549L12.4791 22.6887L12.9858 22.3959C13.0994 22.3298 13.2415 22.3203 13.3599 22.377L13.3978 22.4006L13.8997 22.6887L14.4632 23.0146H14.4679L23.0481 27.9549H23.0576L23.0766 27.9738C23.2423 28.0777 23.2612 28.2477 23.2612 28.3138Z" fill="white"/>
<path d="M12.4893 35.716V46.7496C12.4893 46.9606 12.3476 47.0684 12.2814 47.1059C12.2247 47.134 12.0877 47.1996 11.9176 47.134C11.8987 47.1246 11.8846 47.1152 11.8657 47.1059L2.23741 41.589C2.10986 41.514 2.02954 41.3781 2.02954 41.2328V30.1991C2.02954 29.9835 2.176 29.8757 2.23741 29.8429C2.27521 29.8195 2.3508 29.7867 2.45001 29.7867C2.49725 29.7867 2.5445 29.796 2.59646 29.8148L11.157 34.7129L12.3003 35.3691C12.4137 35.4441 12.4893 35.5707 12.4893 35.716Z" fill="#5129F0"/>
<path d="M24.3541 30.1991V41.2328C24.3541 41.3781 24.2738 41.514 24.1463 41.589L23.6458 41.875L14.5177 47.1059C14.5177 47.1059 14.4799 47.1246 14.4657 47.134C14.2957 47.1996 14.1588 47.134 14.1021 47.1059C14.0407 47.0684 13.8943 46.9606 13.8943 46.7496V35.716C13.8943 35.5707 13.9699 35.4441 14.088 35.3691L14.1021 35.3597L14.6074 35.0738L15.226 34.7129L23.7827 29.8148C23.8347 29.796 23.8866 29.7867 23.9338 29.7867C24.0283 29.7867 24.1085 29.8195 24.1463 29.8429C24.1983 29.871 24.321 29.9554 24.3494 30.1241C24.3541 30.1476 24.3541 30.171 24.3541 30.1991Z" fill="#5129F0"/>
<path d="M36.8334 6.51218L26.0349 0.310813C25.3162 -0.102302 24.4249 -0.102302 23.7016 0.310813L15.0824 5.25891H15.0777L13.0571 6.41935L12.8238 6.55396L12.1378 6.94851L11.6198 7.24558L10.4392 7.92327L1.16665 13.2474C0.447992 13.6558 0 14.4264 0 15.2572V41.1396C0 41.9612 0.447992 42.7317 1.16665 43.1495L11.9698 49.3508C12.3198 49.5504 12.7211 49.6572 13.1318 49.6572C13.5424 49.6572 13.9484 49.5504 14.3031 49.3508L36.7494 36.4607L36.8334 36.4097C37.552 35.9919 38 35.2214 38 34.3998V8.52206C38 7.69119 37.552 6.92066 36.8334 6.51218ZM32.7548 7.38483C33.2214 7.65405 33.2214 8.32246 32.7548 8.58704L24.8822 13.1035H24.8496L16.9864 8.5824C16.5197 8.31318 16.5197 7.64477 16.9864 7.38019L24.5182 3.05873C24.7329 2.9334 24.9989 2.9334 25.2182 3.05873L32.7548 7.38483ZM13.1504 33.3183H13.1131L5.24991 28.8018C4.78325 28.5326 4.78325 27.8642 5.24991 27.5996L12.7818 23.2735C12.9964 23.1482 13.2624 23.1482 13.4818 23.2735L21.0183 27.5996C21.485 27.8688 21.485 28.5326 21.0183 28.8018L14.1351 32.7566C14.1024 32.7705 14.0698 32.7891 14.0418 32.8077L13.1504 33.3183ZM24.8776 26.5784H24.8496L23.8089 25.9797L16.991 22.062C16.5244 21.7928 16.5244 21.129 16.991 20.8598L23.8696 16.9097C23.9162 16.8865 23.9629 16.8633 23.9629 16.8586L24.5229 16.5337C24.7376 16.4084 25.0036 16.4084 25.2229 16.5337L32.7594 20.8598C33.2261 21.129 33.2261 21.7974 32.7594 22.062L24.8869 26.5784H24.8776ZM27.6728 14.7234L34.1547 11.0007C34.6214 10.7315 35.2001 11.0657 35.2001 11.6042V19.0495L27.6728 14.7281V14.7234ZM13.4864 9.7939L21.023 14.12C21.4896 14.3892 21.4896 15.0576 21.023 15.3222L14.1024 19.2909L13.1504 19.8386H13.1178L5.25457 15.3222C4.78792 15.053 4.78792 14.3846 5.25457 14.12L12.7911 9.7939C13.0058 9.66857 13.2718 9.66857 13.4911 9.7939H13.4864ZM10.3318 21.4632L2.79995 25.7847V18.3347C2.79995 17.8009 3.38327 17.4667 3.84527 17.7313L10.3318 21.4586V21.4632ZM3.84527 31.2109L11.3818 35.5324C11.5965 35.6577 11.7318 35.8851 11.7318 36.1358V44.7926C11.7318 45.3264 11.1485 45.6607 10.6865 45.3961L3.14994 41.07C2.93528 40.9446 2.79995 40.7172 2.79995 40.4665V31.8097C2.79995 31.2759 3.38327 30.9417 3.84527 31.2063V31.2109ZM14.8771 35.537L22.4183 31.2109C22.8849 30.9417 23.4636 31.2759 23.4636 31.8143V40.4712C23.4636 40.7172 23.3283 40.9493 23.1136 41.0746L15.5724 45.4007C15.1057 45.6699 14.5271 45.3357 14.5271 44.7973V36.1404C14.5271 35.8944 14.6624 35.6623 14.8771 35.537ZM26.6135 28.7972L34.1501 24.4711C34.6167 24.2019 35.1954 24.5361 35.1954 25.0745V33.7267C35.1954 33.9727 35.0601 34.2048 34.8454 34.3302L27.3089 38.6563C26.8422 38.9255 26.2635 38.5913 26.2635 38.0528V29.4006C26.2635 29.1546 26.3989 28.9225 26.6135 28.7972Z" fill="#0B0E1B"/>
</g>
<defs>
<clipPath id="clip0_617_1722">
<rect width="38" height="49.6574" fill="white"/>
</clipPath>
</defs>
</svg>
